# xmcd
#
# Track frame offsets:
#	150
#	9418
#	26584
#	45488
#	60124
#	75201
#	90195
#	106218
#	120336
#	141837
#	157661
#	171711
#	187776
#	200274
#	230654
#	262954
#	284277
#	302104
#	327082
#
# Disc length: 4789 seconds
#
# Revision: 1
# Processed by: cddbd v1.5.2PL0 Copyright (c) Steve Scherf et al.
# Submitted via: audiograbber 1.83.01
#
DISCID=dc12b313
DTITLE=Status Quo - Down The Dustpipe
DYEAR=2001
DGENRE=Blues
TTITLE0=Down The Dustpipe
TTITLE1=Shy Fly
TTITLE2=(April) Spring Summer And Wednesdays
TTITLE3=In My Cair (Alternate Version)
TTITLE4=Gerdundula
TTITLE5=Spinning Wheel Blues
TTITLE6=Junior's Wailing
TTITLE7=Lakky Lady
TTITLE8=Need Your Love (Demo Version)
TTITLE9=Lazy Poker Blues
TTITLE10=Tune To The Music
TTITLE11=Good Thinking
TTITLE12=Is It Really Me
TTITLE13=Gotta Go Home
TTITLE14=Umleitung
TTITLE15=Something Going On In My Head
TTITLE16=Mean Girl
TTITLE17=Railroad
TTITLE18=Someone's Learning
EXTD=
EXTT0=
EXTT1=
EXTT2=
EXTT3=
EXTT4=
EXTT5=
EXTT6=
EXTT7=
EXTT8=
EXTT9=
EXTT10=
EXTT11=
EXTT12=
EXTT13=
EXTT14=
EXTT15=
EXTT16=
EXTT17=
EXTT18=
PLAYORDER=
